HIERARCHY
ROOT Hips
{
	OFFSET 0.000000 0.000000 0.000000
	CHANNELS 6 Xposition Yposition Zposition Yrotation Xrotation Zrotation
	JOINT Chest
	{
		OFFSET 0.000000 -0.009281 11.569106
		CHANNELS 3 Yrotation Xrotation Zrotation
		JOINT Chest2
		{
			OFFSET -0.000000 0.016865 9.269641
			CHANNELS 3 Yrotation Xrotation Zrotation
			JOINT Chest3
			{
				OFFSET -0.000000 0.000001 8.374491
				CHANNELS 3 Yrotation Xrotation Zrotation
				JOINT Chest4
				{
					OFFSET -0.000000 0.000001 8.374493
					CHANNELS 3 Yrotation Xrotation Zrotation
					JOINT Neck
					{
						OFFSET -0.000000 0.000002 12.152554
						CHANNELS 3 Yrotation Xrotation Zrotation
						JOINT Head
						{
							OFFSET -0.000000 0.040101 7.802319
							CHANNELS 3 Yrotation Xrotation Zrotation
							End Site
							{
								OFFSET -0.000000 0.020947 14.853096
							}
						}
					}
					JOINT RightCollar
					{
						OFFSET 2.894404 0.000001 6.791374
						CHANNELS 3 Yrotation Xrotation Zrotation
						JOINT RightShoulder
						{
							OFFSET 13.574684 0.000001 0.000000
							CHANNELS 3 Yrotation Xrotation Zrotation
							JOINT RightElbow
							{
								OFFSET 23.923903 0.000002 0.000000
								CHANNELS 3 Yrotation Xrotation Zrotation
								JOINT RightWrist
								{
									OFFSET 19.846718 0.012767 0.000000
									CHANNELS 3 Yrotation Xrotation Zrotation
									End Site
									{
										OFFSET 14.973145 0.000001 0.000000
									}
								}
							}
						}
					}
					JOINT LeftCollar
					{
						OFFSET -2.894404 0.000001 6.791374
						CHANNELS 3 Yrotation Xrotation Zrotation
						JOINT LeftShoulder
						{
							OFFSET -13.574684 -0.000001 0.000000
							CHANNELS 3 Yrotation Xrotation Zrotation
							JOINT LeftElbow
							{
								OFFSET -23.923903 -0.000002 0.000000
								CHANNELS 3 Yrotation Xrotation Zrotation
								JOINT LeftWrist
								{
									OFFSET -19.846718 0.012763 0.000000
									CHANNELS 3 Yrotation Xrotation Zrotation
									End Site
									{
										OFFSET -14.973145 -0.000001 0.000000
									}
								}
							}
						}
					}
				}
			}
		}
	}
	JOINT RightHip
	{
		OFFSET 9.469263 0.004643 0.045487
		CHANNELS 3 Yrotation Xrotation Zrotation
		JOINT RightKnee
		{
			OFFSET 0.000000 0.002661 -40.478676
			CHANNELS 3 Yrotation Xrotation Zrotation
			JOINT RightAnkle
			{
				OFFSET 0.000000 0.049106 -35.224068
				CHANNELS 3 Yrotation Xrotation Zrotation
				JOINT RightToe
				{
					OFFSET -0.000001 12.539529 -6.151390
					CHANNELS 3 Yrotation Xrotation Zrotation
					End Site
					{
						OFFSET -0.000001 5.044994 -1.291870
					}
				}
			}
		}
	}
	JOINT LeftHip
	{
		OFFSET -9.469263 0.004641 0.045487
		CHANNELS 3 Yrotation Xrotation Zrotation
		JOINT LeftKnee
		{
			OFFSET 0.000000 0.002661 -40.478676
			CHANNELS 3 Yrotation Xrotation Zrotation
			JOINT LeftAnkle
			{
				OFFSET 0.000000 0.049106 -35.224068
				CHANNELS 3 Yrotation Xrotation Zrotation
				JOINT LeftToe
				{
					OFFSET -0.000001 12.539529 -6.151390
					CHANNELS 3 Yrotation Xrotation Zrotation
					End Site
					{
						OFFSET -0.000001 5.044994 -1.291870
					}
				}
			}
		}
	}
}
MOTION
Frames: 13
Frame Time: 0.016667
16.789671 21.997696 81.519272 -3.573182 -1.058620 -125.578943 -1.662440 -5.788123 1.113143 -0.822944 -2.551881 0.247466 -0.822945 -2.551881 0.247465 -0.616073 -1.914247 0.182132 0.986148 -22.125365 0.071123 1.802068 -4.910425 0.402922 10.271215 7.080289 -0.228197 42.872903 -14.874907 -15.890176 -44.475132 -63.705775 107.847410 -65.510298 39.401155 34.228284 -7.665877 3.964561 -4.549069 -39.882065 -15.139567 18.467203 16.592912 -60.696012 -78.057205 35.584258 25.300129 -68.743566 -9.819330 1.226900 -26.025324 20.632664 -46.299595 -18.701461 23.534088 -46.581559 1.219482 -55.736434 55.333815 -37.283417 -9.573970 0.092579 13.351884 -5.744834 -6.137796 16.961730 11.437024 6.987581 18.259783 -0.190604 -0.515833 -0.289847 
16.836662 21.932476 81.522400 -3.563569 -1.066110 -125.569667 -1.651336 -5.771014 1.107445 -0.822424 -2.543455 0.249850 -0.822424 -2.543455 0.249850 -0.615676 -1.907932 0.183930 0.973738 -22.122423 0.073769 1.780400 -4.904858 0.404282 10.274219 7.075291 -0.224168 42.890210 -14.869633 -15.929234 -44.450045 -63.717592 107.818224 -65.508706 39.401975 34.229671 -7.664219 3.951007 -4.544600 -39.886625 -15.125199 18.478788 16.576698 -60.694939 -78.043599 35.568466 25.274581 -68.738730 -9.774827 1.118549 -26.057172 20.568411 -46.192942 -18.580377 23.587737 -46.646032 1.217378 -55.862215 55.305473 -37.354380 -9.547457 0.025539 13.339452 -5.742587 -6.124865 16.932512 11.430211 7.034776 18.202429 -0.204969 -0.533313 -0.316259 
16.889557 21.859673 81.525520 -3.563109 -1.066005 -125.579298 -1.652942 -5.751402 1.121370 -0.821063 -2.534614 0.252408 -0.821063 -2.534614 0.252404 -0.614650 -1.901304 0.185868 0.958267 -22.122546 0.080366 1.754272 -4.905011 0.411894 10.275248 7.064560 -0.218002 42.900087 -14.864351 -15.971733 -44.410877 -63.725651 107.782052 -65.506992 39.401118 34.229647 -7.668260 3.937487 -4.536455 -39.890955 -15.117092 18.490572 16.582183 -60.697104 -78.047240 35.564057 25.274449 -68.718076 -9.743052 1.006992 -26.055978 20.508519 -46.085352 -18.471792 23.718344 -46.719255 1.174402 -56.043000 55.283596 -37.479335 -9.549957 -0.038400 13.330747 -5.724847 -6.101151 16.901511 11.403955 7.065974 18.337625 -0.200923 -0.535957 -0.309753 
16.944952 21.791834 81.528389 -3.558727 -1.073970 -125.566389 -1.644107 -5.727601 1.112261 -0.820021 -2.524649 0.255461 -0.820022 -2.524650 0.255463 -0.613860 -1.893835 0.188175 0.942417 -22.127083 0.090851 1.728512 -4.913408 0.426379 10.277180 7.046808 -0.214464 42.905052 -14.858069 -16.007335 -44.377201 -63.738390 107.752497 -65.502375 39.398949 34.231231 -7.674091 3.926434 -4.521655 -39.891228 -15.117379 18.500375 16.568786 -60.706769 -78.035615 35.554143 25.255294 -68.711894 -9.704334 0.889320 -26.089499 20.448782 -45.974232 -18.354650 23.739825 -46.808810 1.197497 -56.185013 55.259966 -37.554518 -9.531231 -0.130959 13.296258 -5.709627 -6.067780 16.880995 11.396755 7.115183 18.252012 -0.224934 -0.561424 -0.353317 
17.010437 21.709929 81.531158 -3.565983 -1.073443 -125.600212 -1.654319 -5.704235 1.149100 -0.818895 -2.512745 0.258405 -0.818895 -2.512746 0.258406 -0.613010 -1.884911 0.190400 0.927256 -22.134148 0.103546 1.704590 -4.926549 0.445022 10.278378 7.029421 -0.217286 42.902812 -14.859059 -16.030611 -44.355826 -63.755103 107.735518 -65.502006 39.397522 34.232143 -7.683418 3.906175 -4.520790 -39.893639 -15.101769 18.516445 16.548539 -60.713511 -78.011613 35.543618 25.245356 -68.710194 -9.682863 0.762597 -26.091237 20.361361 -45.867603 -18.201250 23.946030 -46.912574 1.099513 -56.426693 55.256306 -37.740173 -9.539566 -0.216804 13.315386 -5.700743 -6.025958 16.857679 11.361880 7.152309 18.381021 -0.209339 -0.559633 -0.326928 
17.091043 21.629057 81.533325 -3.589786 -1.066754 -125.598491 -1.676115 -5.686005 1.151198 -0.818823 -2.499388 0.262131 -0.818823 -2.499388 0.262134 -0.612948 -1.874897 0.193213 0.913539 -22.139623 0.116780 1.683436 -4.936749 0.465053 10.280776 7.006848 -0.224083 42.899127 -14.856510 -16.052058 -44.348094 -63.776174 107.732840 -65.501692 39.397088 34.227632 -7.689939 3.883126 -4.514382 -39.896310 -15.095502 18.527684 16.534279 -60.713388 -77.998814 35.520812 25.228243 -68.701362 -9.686240 0.614242 -26.123274 20.286242 -45.774097 -18.095241 24.066269 -47.015771 1.110186 -56.638401 55.227608 -37.883303 -9.549132 -0.345666 13.300238 -5.703327 -5.977198 16.844558 11.332744 7.203982 18.494061 -0.211810 -0.562581 -0.336665 
17.180334 21.541918 81.533333 -3.610656 -1.047687 -125.623544 -1.708379 -5.655608 1.177812 -0.819515 -2.484864 0.266191 -0.819514 -2.484865 0.266188 -0.613457 -1.864011 0.196280 0.902404 -22.141911 0.127359 1.666237 -4.941022 0.481036 10.282395 6.986097 -0.223949 42.904639 -14.855373 -16.082667 -44.330998 -63.793653 107.718456 -65.497505 39.391221 34.225972 -7.693933 3.868191 -4.513859 -39.904670 -15.095297 18.551671 16.524663 -60.716885 -77.992960 35.504167 25.211487 -68.689642 -9.698184 0.474742 -26.119811 20.204096 -45.687364 -17.989658 24.248978 -47.126260 1.090951 -56.892962 55.208655 -38.064894 -9.571676 -0.459215 13.315520 -5.720570 -5.929392 16.858244 11.301409 7.258372 18.594751 -0.202377 -0.551701 -0.326906 
17.278275 21.461479 81.531532 -3.628744 -1.030876 -125.609597 -1.735522 -5.619711 1.170064 -0.820687 -2.470607 0.269919 -0.820687 -2.470607 0.269924 -0.614328 -1.853323 0.199092 0.894034 -22.142138 0.133334 1.652767 -4.941433 0.489517 10.286408 6.963167 -0.222733 42.914314 -14.853155 -16.117237 -44.303455 -63.810359 107.683881 -65.486884 39.390312 34.229865 -7.693809 3.845513 -4.507027 -39.906087 -15.093065 18.560098 16.507280 -60.730183 -77.980837 35.486945 25.201653 -68.681398 -9.707869 0.330644 -26.145966 20.098294 -45.599692 -17.832215 24.480158 -47.238565 1.050046 -57.160289 55.157196 -38.246228 -9.583066 -0.593925 13.293688 -5.739995 -5.879722 16.883143 11.282712 7.326891 18.541564 -0.214063 -0.554234 -0.352260 
17.387127 21.376617 81.527344 -3.649840 -1.015813 -125.611222 -1.766423 -5.584494 1.177749 -0.821094 -2.454678 0.274185 -0.821094 -2.454678 0.274193 -0.614625 -1.841383 0.202315 0.886611 -22.141129 0.136251 1.640168 -4.939522 0.492721 10.288997 6.943435 -0.219212 42.922244 -14.849776 -16.159256 -44.273559 -63.826916 107.652162 -65.469392 39.381013 34.236368 -7.695447 3.820016 -4.512066 -39.910875 -15.088988 18.573229 16.479122 -60.745312 -77.953263 35.472167 25.189774 -68.674683 -9.718352 0.187248 -26.156220 19.978192 -45.540020 -17.653469 24.729123 -47.324899 1.000812 -57.405315 55.099966 -38.405314 -9.605821 -0.740276 13.309716 -5.754602 -5.814429 16.917250 11.252843 7.401027 18.412653 -0.212729 -0.556501 -0.355045 
17.511456 21.287891 81.521202 -3.687527 -1.005538 -125.614364 -1.804051 -5.557212 1.193557 -0.821327 -2.440313 0.276847 -0.821327 -2.440313 0.276846 -0.614796 -1.830612 0.204322 0.879410 -22.135161 0.138080 1.627716 -4.928383 0.494108 10.292825 6.934405 -0.215940 42.923730 -14.846840 -16.202870 -44.248407 -63.855780 107.629274 -65.455608 39.369224 34.242914 -7.697833 3.795438 -4.514273 -39.908648 -15.094271 18.578263 16.450169 -60.758726 -77.929713 35.459060 25.178051 -68.665067 -9.739423 0.028401 -26.144296 19.854272 -45.491006 -17.483169 25.024131 -47.423264 0.949153 -57.670545 55.021333 -38.583783 -9.632337 -0.921769 13.372877 -5.780485 -5.740083 16.944033 11.200230 7.493857 18.371897 -0.191504 -0.557067 -0.343260 
17.646849 21.213531 81.514053 -3.727951 -0.950506 -125.583601 -1.873241 -5.501920 1.176043 -0.822519 -2.427735 0.278840 -0.822519 -2.427736 0.278836 -0.615688 -1.821181 0.205829 0.872396 -22.121304 0.140703 1.615880 -4.902598 0.497075 10.295771 6.927663 -0.214456 42.923504 -14.848124 -16.238443 -44.221865 -63.881352 107.604118 -65.449844 39.361745 34.245059 -7.701766 3.781524 -4.527686 -39.909171 -15.105469 18.596824 16.439639 -60.774962 -77.920888 35.452852 25.186128 -68.657560 -9.812140 -0.104407 -26.139588 19.728088 -45.462023 -17.328031 25.404730 -47.555889 0.900150 -58.015640 54.909407 -38.835701 -9.692679 -1.090795 13.440994 -5.808485 -5.676811 16.973379 11.090701 7.573813 18.165400 -0.140475 -0.516925 -0.295042 
17.795340 21.142159 81.505630 -3.787280 -0.897699 -125.555174 -1.951068 -5.458547 1.165896 -0.823802 -2.416770 0.279022 -0.823801 -2.416769 0.279022 -0.616655 -1.812959 0.205970 0.864945 -22.101123 0.144386 1.603593 -4.865090 0.501902 10.292900 6.905165 -0.218188 42.931000 -14.846652 -16.257711 -44.210168 -63.891529 107.586251 -65.427618 39.351230 34.261667 -7.700076 3.752867 -4.539881 -39.912825 -15.106372 18.605377 16.427530 -60.787522 -77.913894 35.441011 25.186862 -68.655702 -9.912414 -0.238438 -26.099585 19.593180 -45.474259 -17.173739 25.875815 -47.679652 0.831674 -58.363919 54.756759 -39.081373 -9.758832 -1.258429 13.568223 -5.845221 -5.648928 17.027359 10.954565 7.677655 17.978082 -0.076950 -0.468990 -0.248114 
17.956461 21.102612 81.492638 -3.866739 -0.780260 -125.467406 -2.085911 -5.393371 1.102374 -0.824496 -2.406072 0.277203 -0.824496 -2.406072 0.277206 -0.617189 -1.804931 0.204624 0.855660 -22.075860 0.149332 1.588391 -4.818142 0.508567 10.289208 6.889741 -0.217583 42.936581 -14.848553 -16.284129 -44.218266 -63.893087 107.586251 -65.410311 39.340431 34.271690 -7.699123 3.719691 -4.552878 -39.915113 -15.104680 18.619546 16.417347 -60.808805 -77.912910 35.438898 25.183123 -68.649965 -10.118432 -0.319751 -26.109817 19.442801 -45.599747 -16.994368 26.480374 -47.775585 0.787568 -58.781134 54.504913 -39.373578 -9.878755 -1.398213 13.665248 -5.891874 -5.667235 17.142851 10.735130 7.772070 17.587498 0.024584 -0.362128 -0.162175 
